inDegrees=yes
name=ik_lifting_orientations
DataType=double
version=3
OpenSimVersion=4.5-2024-01-10-34fd6af
endheader
time	pelvis_tilt	pelvis_list	pelvis_rotation	pelvis_tx	pelvis_ty	pelvis_tz	hip_flexion_r	hip_adduction_r	hip_rotation_r	knee_angle_r	knee_angle_r_beta	ankle_angle_r	subtalar_angle_r	mtp_angle_r	hip_flexion_l	hip_adduction_l	hip_rotation_l	knee_angle_l	knee_angle_l_beta	ankle_angle_l	subtalar_angle_l	mtp_angle_l	lumbar_extension	lumbar_bending	lumbar_rotation	arm_flex_r	arm_add_r	arm_rot_r	elbow_flex_r	pro_sup_r	wrist_flex_r	wrist_dev_r	arm_flex_l	arm_add_l	arm_rot_l	elbow_flex_l	pro_sup_l	wrist_flex_l	wrist_dev_l
0.88	-0.4440121431312293	8.380949843647471	-90.36430753943463	0	0.9399999998679526	0	45.09504032145443	-10.0811402214828	0	60.0959582261926	1.048872338188032	-5.018405192971976	0	0	45.09504032145443	-10.0811402214828	0	60.0959582261926	1.048872338188032	-5.018405192971976	0	0	23.96073154748598	2.262750704237473	12.78134392793824	-12.01598999474164	-1.694385459309561	-10.12403695917154	0.03413123173930437	1.260525208458218	0	0	0	-11.78172539274424	0	88.76609183017547	1.260525208458218	0	0
0.89	-0.5985174768421023	9.243413812668011	-90.2444244426429	0	0.9399999998679526	0	45.09501443329334	-10.08106332826596	0	60.0959376724935	1.048871979458309	-5.018382460796973	0	0	45.09501443329334	-10.08106332826596	0	60.0959376724935	1.048871979458309	-5.018382460796973	0	0	27.38165141558545	2.737450417666514	12.49831223156711	-14.31522378011536	-1.219252802604066	-9.374971754169112	0.03149921239450536	1.260285955680986	0	0	0	-11.78217565276992	0	88.76632599612222	1.260285955680986	0	0
0.9	-0.7577996599886829	10.11152116569338	-90.11783776823697	0	0.9399999998679526	0	45.09498893856745	-10.08098757468359	0	60.09591744464357	1.048871626415727	-5.018360066586072	0	0	45.09498893856745	-10.08098757468359	0	60.09591744464357	1.048871626415727	-5.018360066586072	0	0	30.10917890213033	3.120241758537228	12.33181040038559	-15.94587510719456	-0.7241021569394483	-8.744132155217761	0.0294939040457621	1.26005038743347	0	0	0	-11.78261889607363	0	88.76655655587594	1.26005038743347	0	0
0.91	-0.7702839281264581	11.30985476572503	-90.39241827323895	0	0.9399999998679526	0	45.0949607142845	-10.08090431136426	0	60.09589493350924	1.048871233522315	-5.018335490522567	0	0	45.0949607142845	-10.08090431136426	0	60.09589493350924	1.048871233522315	-5.018335490522567	0	0	33.28716430673835	3.508317757324192	12.61129036767836	-17.79266062224175	-0.1991826831090402	-8.222131697511928	0.02832307145419669	1.259789053145162	0	0	0	-11.78311148153676	0	88.76681233386878	1.259789053145162	0	0
0.92	-0.5328078464497711	12.39193062907713	-91.25431556074199	0	0.9399999998679526	0	45.09493276286418	-10.08082286879078	0	60.09587242852609	1.048870840736261	-5.018311512322563	0	0	45.09493276286418	-10.08082286879078	0	60.09587242852609	1.048870840736261	-5.018311512322563	0	0	36.44394903984174	4.029872500907168	13.49513833672491	-19.83517279934873	0.3945758552793374	-7.820789366256681	0.02765683076409462	1.259529281748145	0	0	0	-11.78360265426222	0	88.76706658223213	1.259529281748145	0	0
0.93	-0.2839138360122793	13.47026972882058	-92.1127493600374	0	0.9399999998679526	0	45.09490579479095	-10.08074500759407	0	60.09585056607614	1.048870459164527	-5.018288631621487	0	0	45.09490579479095	-10.08074500759407	0	60.09585056607614	1.048870459164527	-5.018288631621487	0	0	39.45565301081599	4.63979296388887	14.46387237528133	-21.81702983608407	1.01145630190885	-7.634924049855761	0.02757957508943774	1.259277967049969	0	0	0	-11.78407892043445	0	88.76731255371891	1.259277967049969	0	0
0.9399999999999999	0.1119046564869866	14.50096856930187	-93.17773915037698	0	0.9399999998679526	0	45.09487049286348	-10.08064390414862	0	60.09582177568298	1.048869956677373	-5.018258970023425	0	0	45.09487049286348	-10.08064390414862	0	60.09582177568298	1.048869956677373	-5.018258970023425	0	0	42.07207804670846	5.452194164798329	15.6349633130347	-23.59633398586486	1.377162188037478	-7.628357973912744	0.02787561698692589	1.258948201366739	0	0	0	-11.78470511094229	0	88.76763530826817	1.258948201366739	0	0
0.95	0.5017830367688876	15.58479684203542	-94.19000681001822	0	0.9399999998679526	0	45.09483696986458	-10.0805464019483	0	60.09579478782572	1.048869485650406	-5.018230287658053	0	0	45.09483696986458	-10.0805464019483	0	60.09579478782572	1.048869485650406	-5.018230287658053	0	0	44.80617270906271	6.29392853483918	16.69685686500794	-25.44660144674383	1.84641716514586	-7.405151059512518	0.02838252514177567	1.258636598317283	0	0	0	-11.78529433308109	0	88.76794028628728	1.258636598317283	0	0
0.96	0.7982504999904575	16.68007678012578	-94.84370864585848	0	0.9399999998679526	0	45.09480708520039	-10.08046128942974	0	60.09577034073327	1.04886905896815	-5.018205354714623	0	0	45.09480708520039	-10.08046128942974	0	60.09577034073327	1.04886905896815	-5.018205354714623	0	0	47.68951934234936	7.059473913155013	17.45636080332859	-27.44500719052382	2.312081870490988	-7.512322360344968	0.02920563445281469	1.258357057618132	0	0	0	-11.78582572588366	0	88.76821388369696	1.258357057618132	0	0
0.97	1.195456574610625	17.98942613240422	-95.70088090270416	0	0.9399999998679526	0	45.0947756422952	-10.08037117036288	0	60.09574476521291	1.048868612591112	-5.01817892961338	0	0	45.0947756422952	-10.08037117036288	0	60.09574476521291	1.048868612591112	-5.01817892961338	0	0	50.79484805246347	7.820916504654422	18.13465195476393	-29.37644713282569	3.029176527943564	-7.44105350921253	0.0300745777048704	1.258063569329198	0	0	0	-11.78638261239662	0	88.76850113213722	1.258063569329198	0	0
0.98	1.662747842399555	19.37261642143781	-96.49584705498589	0	0.9399999998679526	0	45.09474853149482	-10.08029308259282	0	60.09572281244532	1.048868229443038	-5.018156015239488	0	0	45.09474853149482	-10.08029308259282	0	60.09572281244532	1.048868229443038	-5.018156015239488	0	0	53.73102268598568	8.532507184620542	18.81127904426946	-31.08595287422003	3.734042960748027	-7.430073066216664	0.03077373173589156	1.257810941510457	0	0	0	-11.78686127709188	0	88.76874838882689	1.257810941510457	0	0
0.99	2.331694525657632	20.63846805023913	-97.78073323895789	0	0.9399999998679526	0	45.09472287823794	-10.08022008396401	0	60.09570185446903	1.048867863657347	-5.018134648268889	0	0	45.09472287823794	-10.08022008396401	0	60.09570185446903	1.048867863657347	-5.018134648268889	0	0	56.17695389072004	9.535327971385865	19.90477826557736	-32.62960192156448	4.060568780510925	-7.60219849419742	0.03279374050702649	1.257571048807014	0	0	0	-11.78731715019494	0	88.76898318119144	1.257571048807014	0	0
1	2.877011393353636	21.82678100949748	-98.65143906594666	0	0.9399999998679526	0	45.09469608094953	-10.08014391601509	0	60.0956799517535	1.048867481382846	-5.018112361535476	0	0	45.09469608094953	-10.08014391601509	0	60.0956799517535	1.048867481382846	-5.018112361535476	0	0	58.68789273596108	10.49272212470972	20.65227570787914	-34.32967108915275	4.37319446082628	-7.98158071480833	0.03535119238606985	1.257320398070824	0	0	0	-11.78779355453837	0	88.76922850286536	1.257320398070824	0	0
1.01	3.51617336885597	23.02985645534228	-99.75436058179724	0	0.9399999998679526	0	45.09465587562657	-10.08002761880058	0	60.09564755216532	1.048866915903356	-5.018078223074273	0	0	45.09465587562657	-10.08002761880058	0	60.09564755216532	1.048866915903356	-5.018078223074273	0	0	61.32506623267933	11.35423663998228	21.18347130053441	-36.08996520380028	4.723601487099628	-7.911123565441904	0.03818236269749419	1.256946377603045	0	0	0	-11.78850118669675	0	88.76959457125096	1.256946377603045	0	0
1.02	3.522997460422607	24.20232998755961	-100.0957099511255	0	0.9399999998679526	0	45.09462282124526	-10.07993361156793	0	60.09562057492496	1.048866445061688	-5.018050722811538	0	0	45.09462282124526	-10.07993361156793	0	60.09562057492496	1.048866445061688	-5.018050722811538	0	0	64.11054907242588	11.97883073659695	20.77152835108493	-37.90171669432729	5.099788876187647	-7.745859472306833	0.04130593481789691	1.256637331950513	0	0	0	-11.78908835020452	0	88.76989704630877	1.256637331950513	0	0
1.03	3.380943747408061	25.2668339598675	-100.5355575358845	0	0.9399999998679526	0	45.09457194389389	-10.07978537739076	0	60.09557986743366	1.048865734581935	-5.018007169000245	0	0	45.09457194389389	-10.07978537739076	0	60.09557986743366	1.048865734581935	-5.018007169000245	0	0	66.77716369448352	12.72580684595667	20.04590824313307	-39.74575974238957	5.336445460078335	-7.364480738539077	0.04458658167841077	1.256165255488161	0	0	0	-11.78997949860585	0	88.77035908587241	1.256165255488161	0	0
